<!-- Generator: Adobe Illustrator 19.1.1, SVG Export Plug-In  -->
<svg version="1.1"
	 xmlns="http://www.w3.org/2000/svg" xmlns:xlink="http://www.w3.org/1999/xlink" xmlns:a="http://ns.adobe.com/AdobeSVGViewerExtensions/3.0/"
	 x="0px" y="0px" width="101.1px" height="52.1px" viewBox="0 0 101.1 52.1" style="enable-background:new 0 0 101.1 52.1;"
	 xml:space="preserve">
<style type="text/css">
	.st0{fill:#FFFFFF;}
</style>
<defs>
</defs>
<path class="st0" d="M100,24.8c-3.8-0.9-7.7-1.8-11.5-2.5c0,0,0,0,0,0c-1.8-3.2-5.5-5.2-9.6-4.8c-1.1,0.1-2.1,0.4-3,0.8
	c-1.7-3.6-5.7-6-10.2-5.7c0-0.4,0-0.7-0.1-1.1c-0.6-4.2-5-7.1-9.8-6.1c-1,0.2-1.9,0.5-2.7,1c-1.9-4.7-7.7-7.4-13.6-5.9
	c-5.8,1.5-9.5,6.4-9.2,11.3c-0.5,0.1-0.9,0.2-1.4,0.3c-5.7,1.8-8.8,7.5-7,12.5c0.5,1.3,1.2,2.4,2.1,3.3c-3.3,1.8-5.3,5.2-5.3,8.6
	c-0.1,0.1-0.1,0.1-0.2,0.2c-1.2,0-2.3,0.3-3.5,0.8c-2.1,0.9-3.7,2.3-4.7,4.1c0,0,0,0,0,0c-3.3,2.6-6.6,5.2-9.8,8
	c-1.3,1.1,0.1,3.1,1.6,2.3c1.5-0.8,3.1-1.5,4.6-2.3c0.8-0.4,1.7-0.8,2.5-1.2C34.5,36.6,61.8,29.7,89.6,28c3.3-0.2,6.6-0.3,9.8-0.4
	c0.1,0,0.1,0,0.2,0C101.4,27.6,101.7,25.2,100,24.8z"/>
</svg>
