<!-- Generator: Adobe Illustrator 19.1.1, SVG Export Plug-In  -->
<svg version="1.1"
	 xmlns="http://www.w3.org/2000/svg" xmlns:xlink="http://www.w3.org/1999/xlink" xmlns:a="http://ns.adobe.com/AdobeSVGViewerExtensions/3.0/"
	 x="0px" y="0px" width="103.5px" height="51.8px" viewBox="0 0 103.5 51.8" style="enable-background:new 0 0 103.5 51.8;"
	 xml:space="preserve">
<style type="text/css">
	.st0{fill:#FFFFFF;}
</style>
<defs>
</defs>
<path class="st0" d="M102.8,49.1c-5.3-3.4-10.7-6.6-16.4-9.5c1.7-5.3-1.6-11.1-7.5-12.7c-1.7-0.4-3.4-0.5-4.9-0.2
	c0.5-1,0.8-2.2,0.9-3.4c0.3-4-2.1-7.9-6.1-9.8c-1.8-0.9-3.6-1.2-5.3-1.2c0-0.1,0-0.2,0.1-0.2c1.1-5.5-3.3-11-9.9-11.9
	c-6.6-0.9-12.3,3.1-12.8,8.7c0,0.2,0,0.5,0,0.7c-1.3-0.6-2.7-1-4.2-1.1c-6.4-0.5-11.6,3.9-11.8,9.5c0,0.6,0,1.1,0.1,1.6
	c-4.2,1.3-7.1,5-7.1,9.3C12.3,30,6.6,31.3,1.1,32.8c-1.7,0.5-1.3,3,0.5,2.8c3.9-0.3,7.7-0.4,11.6-0.5c2.3,0,4.6,0,7,0
	c21.1,0.3,42.1,3.6,62.3,9.7c6.4,2,12.8,4.2,19,6.8C103.1,52.3,104.3,50.1,102.8,49.1z"/>
</svg>
