<!-- Generator: Adobe Illustrator 19.1.1, SVG Export Plug-In  -->
<svg version="1.1"
	 xmlns="http://www.w3.org/2000/svg" xmlns:xlink="http://www.w3.org/1999/xlink" xmlns:a="http://ns.adobe.com/AdobeSVGViewerExtensions/3.0/"
	 x="0px" y="0px" width="86.6px" height="63.8px" viewBox="0 0 86.6 63.8" style="enable-background:new 0 0 86.6 63.8;"
	 xml:space="preserve">
<style type="text/css">
	.st0{fill:#85D2C4;}
	.st1{fill:#F4E757;}
	.st2{fill:#A43720;}
	.st3{fill:#C74A28;}
	.st4{fill:#385B52;}
	.st5{fill:#E48746;}
</style>
<defs>
</defs>
<g>
	<g>
		<path class="st0" d="M49.2,41.2c0,0,7.2,13.3-8.2,20c-3.3,1.3-7.1,2-9.8,2.5c-0.8,0.1-1.3-1-0.6-1.5c3.9-2.8,9.2-8.5,4.3-16.4
			c0,0-0.9-5.5,5.9-8.2C47.5,34.9,49.2,41.2,49.2,41.2z"/>
		<path class="st0" d="M39,38.5c-5,2.9-4.2,7.4-4.2,7.4c4.9,7.9-0.4,13.6-4.3,16.4C30.5,62.3,50,57.9,39,38.5z"/>
		<path class="st0" d="M33.9,17.8c0,0-9.3-11.9-21.6-0.6c-2.5,2.5-4.7,5.7-6.3,8c-0.5,0.7,0.4,1.6,1.1,1.2c4.1-2.4,11.5-5,16.7,2.7
			c0,0,4.6,3.1,9.9-2S33.9,17.8,33.9,17.8z"/>
		<path class="st0" d="M32.3,28.2c-4.6,3.4-8.5,0.8-8.5,0.8c-5.3-7.7-12.6-5.1-16.7-2.7C7.1,26.3,19,10.3,32.3,28.2z"/>
		<path class="st1" d="M28.9,47c1.1-0.7,0.1-4.2-2.3-7.8c-2.3-3.6-5.1-6-6.2-5.3c-0.1,0.1-0.2,0.2-0.3,0.4l-2.3,3
			c-0.9,0.6,0,3.4,1.9,6.4c1.9,2.9,4.2,4.9,5.1,4.3l3.6-0.9C28.6,47.2,28.8,47.1,28.9,47z"/>
		
			<ellipse transform="matrix(0.8383 -0.5452 0.5452 0.8383 -17.4749 20.5192)" class="st2" cx="25.9" cy="39.7" rx="3.3" ry="11.1"/>
		<path class="st3" d="M61.9,34.6C76.1,25.3,79.6,12.3,76.2,7c-3.4-5.3-16.8-7.4-31,1.9c-14.2,9.3-23,22.5-23,22.5l0,0l0,0
			c-1.1,0.7,0.2,4.7,2.9,8.9s5.8,7,6.9,6.3l0,0C32,46.5,47.7,43.9,61.9,34.6z"/>
		<path class="st1" d="M60.9,2.7c0.7,3.6,2.3,7.5,4.7,11.2c2.4,3.7,5.3,6.7,8.3,8.8c3.9-6.4,4.4-12.5,2.3-15.7S68.3,1.7,60.9,2.7z"
			/>
		<circle class="st0" cx="53.8" cy="21.6" r="6.9"/>
		<path class="st4" d="M49.7,24.2c-1.5-2.2-0.8-5.3,1.4-6.7c2.2-1.5,5.3-0.8,6.7,1.4c1.5,2.2,0.8,5.3-1.4,6.7
			C54.2,27.1,51.2,26.4,49.7,24.2z"/>
		<circle class="st0" cx="36.8" cy="32.6" r="4.9"/>
		<circle class="st4" cx="36.8" cy="32.6" r="3.1"/>
		<g>
			<ellipse transform="matrix(0.8383 -0.5452 0.5452 0.8383 8.3588 42.5399)" class="st3" cx="75.9" cy="7.2" rx="1.8" ry="3"/>
			<path class="st0" d="M86.4,1c0.5-0.4,0-1.2-0.6-0.9L75.5,5.6c-0.3,0.2-0.2,1,0.3,1.7c0.5,0.7,1.1,1.2,1.5,1L86.4,1z"/>
		</g>
		<path class="st5" d="M19.5,48.8c-0.4-2.9-2.1-5.5-4.6-7c-2-1.2-4.7-1.9-7.8,0.1C2.4,45,0.6,52.3,0,55.3c-0.1,0.8,0.3,1.5,1.1,1.7
			c3,0.7,10.4,2,15.2-1.1C19.3,54,19.8,51.1,19.5,48.8z"/>
		<path class="st1" d="M18.4,47.1c-0.1-1.5-1-2.8-2.3-3.5c-1.1-0.6-2.5-0.8-4.3,0.3c-2.7,1.8-3.9,5.6-4.3,7.2
			c-0.1,0.4,0.1,0.8,0.5,0.8c1.6,0.3,5.6,0.7,8.3-1C18.1,49.7,18.5,48.3,18.4,47.1z"/>
	</g>
</g>
</svg>
