<!-- Generator: Adobe Illustrator 19.1.1, SVG Export Plug-In  -->
<svg version="1.1"
	 xmlns="http://www.w3.org/2000/svg" xmlns:xlink="http://www.w3.org/1999/xlink" xmlns:a="http://ns.adobe.com/AdobeSVGViewerExtensions/3.0/"
	 x="0px" y="0px" width="183.7px" height="183.7px" viewBox="0 0 183.7 183.7" style="enable-background:new 0 0 183.7 183.7;"
	 xml:space="preserve">
<style type="text/css">
	.st0{fill:#E9B2A4;}
	.st1{fill:#DD8171;}
	.st2{fill:#CE6856;}
	.st3{fill:#BE877B;}
	.st4{fill:#ECDB93;}
	.st5{opacity:0.59;fill:#E9B2A4;}
	.st6{fill:#F5DDD7;}
</style>
<defs>
</defs>
<g>
	<path class="st0" d="M183.7,91.8c0,3.8-0.2,7.6-0.7,11.3c-0.1,0.8-0.2,1.5-0.3,2.3c-0.3,2.2-0.7,4.3-1.2,6.4c-0.5,2-1,4.1-1.6,6.1
		v0c-0.8,2.6-1.7,5.2-2.7,7.8c-0.3,0.8-0.6,1.6-1,2.3v0c-1.6,3.8-3.5,7.5-5.6,11c-16,26.8-45.4,44.7-78.9,44.7
		c-3.1,0-6.2-0.2-9.2-0.5c-11.7-1.2-22.8-4.6-32.8-9.7c-0.7-0.4-1.5-0.8-2.2-1.2c-4-2.2-7.9-4.7-11.5-7.5c-1.6-1.3-3.3-2.6-4.8-3.9
		c-3.5-3.1-6.7-6.4-9.7-9.9c-0.5-0.6-1-1.2-1.5-1.8c-3.3-4.2-6.3-8.6-8.9-13.3c-1-1.9-2-3.8-2.9-5.8c-2.5-5.3-4.4-11-5.8-16.8
		c-0.5-1.9-0.9-3.8-1.2-5.8c-0.5-2.9-0.9-5.8-1.1-8.8c-0.1-0.8-0.1-1.5-0.1-2.3C0,94.9,0,93.4,0,91.8c0-2.4,0.1-4.8,0.3-7.2
		c0.1-1.1,0.2-2.2,0.3-3.3v0C1,78,1.5,74.7,2.3,71.4c0.7-3,1.5-5.9,2.5-8.8c1.2-3.6,2.6-7.1,4.2-10.5v0c0.5-1,1-2,1.5-2.9
		C15.8,39,23,30,31.6,22.5C47.8,8.5,68.8,0,91.8,0c10.9,0,21.3,1.9,31,5.4c0,0,0,0,0,0c10.4,3.7,20,9.3,28.2,16.3
		c0.8,0.7,1.7,1.4,2.5,2.2c0.8,0.8,1.6,1.5,2.4,2.3c1.9,1.8,3.7,3.7,5.4,5.7c1.9,2.2,3.6,4.4,5.3,6.7c0.4,0.6,0.9,1.2,1.3,1.8
		c1.9,2.8,3.6,5.7,5.2,8.7c0.4,0.7,0.7,1.3,1,2c2.9,5.9,5.2,12.1,6.8,18.6c0.5,1.9,0.9,3.8,1.2,5.8c0.2,1.1,0.4,2.2,0.5,3.3
		c0.3,1.9,0.5,3.9,0.6,5.8C183.6,87,183.7,89.4,183.7,91.8z"/>
	<path class="st1" d="M170.7,138.9c-16,26.8-45.4,44.7-78.9,44.7c-3.1,0-6.2-0.2-9.2-0.5c2.3-2.4,5-4.4,8.2-5.4
		c6.1-2,12.8-0.2,19.1-1.3c12.7-2.1,20.6-14.4,30.1-23C148.5,145.9,159.4,140.8,170.7,138.9z"/>
	<g>
		<path class="st2" d="M177.3,125.6c-0.3,0.8-0.6,1.6-1,2.3v0c-10,1.3-19.3,3-28.3,4.9c-34.6,7.6-68.2,21.5-98.2,40.6
			c-0.7-0.4-1.5-0.8-2.2-1.2c30.5-19.5,64.7-33.8,100-41.5C156.9,128.7,166.8,127,177.3,125.6z"/>
	</g>
	<g>
		<path class="st3" d="M181.5,111.8c-0.5,2-1,4.1-1.6,6.1v0c-11.6,1.4-22.4,3.1-32.8,5.1c-39.3,7.8-77.3,22.1-111.1,41.9
			c-1.6-1.3-3.3-2.6-4.8-3.9c34.9-20.6,74.2-35.6,114.8-43.6C157.2,115,168.9,113.2,181.5,111.8z"/>
	</g>
	<g>
		<path class="st4" d="M183,103.1c-0.1,0.8-0.2,1.5-0.3,2.3c-55.6,8.1-109.6,23.3-161.2,45.6c-0.5-0.6-1-1.2-1.5-1.8
			C72.2,126.6,126.8,111.2,183,103.1z"/>
	</g>
	<g>
		<path class="st2" d="M183.4,84.6c-8.9,0.5-18.8,2.9-29.8,7.4c-4.2,1.7-8.5,3.6-12.6,5.5c-13.4,6-27.3,12.2-42.3,13.4
			c-5.7,0.5-11.5,0.2-17.2-0.1c-9.8-0.5-19.1-0.9-27.6,2.2c-6,2.2-11.4,6.2-16.6,10.1c-0.7,0.5-1.4,1-2.1,1.6
			c-6,4.4-13.1,9.2-21.4,10.8c-0.8,0.2-1.7,0.3-2.6,0.4c-1-1.9-2-3.8-2.9-5.8c1.5,0.1,3.1-0.1,4.4-0.3c7.1-1.4,13.6-5.8,19.1-9.8
			c0.7-0.5,1.4-1,2.1-1.5c5.5-4.1,11.3-8.4,18-10.9c9.7-3.6,20-3.1,30-2.6c5.4,0.3,11.1,0.5,16.4,0.1c14-1.1,27.4-7.1,40.4-12.9
			c4.2-1.9,8.5-3.8,12.8-5.6c11.4-4.7,21.9-7.3,31.4-7.8C183,80.7,183.3,82.7,183.4,84.6z"/>
	</g>
	<g>
		<path class="st3" d="M182.2,75.5C120.4,79.2,59.1,92,2.5,113.3c-0.5-1.9-0.9-3.8-1.2-5.8c56.6-21.1,117.8-34,179.7-37.7
			C181.5,71.7,181.9,73.6,182.2,75.5z"/>
	</g>
	<g>
		<path class="st4" d="M174.2,51.1C115.1,62.9,56.8,78.8,0.3,98.6c-0.1-0.8-0.1-1.5-0.1-2.3c56.3-19.7,114.3-35.5,173.1-47.3
			C173.5,49.8,173.9,50.5,174.2,51.1z"/>
	</g>
	<g>
		<path class="st1" d="M167.9,40.4c-3,1.2-6.2,2.2-9.7,2.8c-7.7,1.3-15.6,1-23.3,0.7c-2.1-0.1-4.2-0.2-6.3-0.2
			c-9-0.2-19.3,0.1-28.2,4.6c-3.8,1.9-7.3,4.7-10.8,7.3c-4.1,3.2-8.4,6.5-13.3,8.5c-7.9,3.3-16.6,3-24.9,2.8
			c-3.9-0.1-7.9-0.2-11.7,0c-14.8,0.9-29,7.5-39.5,17.8c0.1-1.1,0.2-2.2,0.3-3.3v0c10.7-9.7,24.6-15.8,39-16.7c4-0.2,8-0.1,11.9,0
			c8.5,0.2,16.6,0.5,24-2.6c4.7-1.9,8.8-5.1,12.8-8.2c3.5-2.7,7.1-5.5,11.1-7.5c9.3-4.7,20-5.1,29.2-4.8c2.1,0.1,4.2,0.1,6.3,0.2
			c7.6,0.3,15.4,0.7,22.9-0.6c3.1-0.5,6.1-1.4,8.8-2.5C167.1,39.2,167.5,39.8,167.9,40.4z"/>
	</g>
	<g>
		<path class="st4" d="M161.4,31.9c-27.9,0.5-55.8,3.7-83.1,9.5C45.6,48.1,21,57.9,2.3,71.4c0.7-3,1.5-5.9,2.5-8.8
			c18.5-12,42.1-20.8,72.3-27.1c26-5.5,52.4-8.6,79-9.5C157.9,28,159.7,29.9,161.4,31.9z"/>
	</g>
	<g>
		<path class="st1" d="M153.6,23.9C104.1,24.3,55,33.9,9,52.2c0.5-1,1-2,1.5-2.9C55.3,31.8,103,22.4,151.1,21.7
			C151.9,22.4,152.8,23.1,153.6,23.9z"/>
	</g>
	<path class="st3" d="M122.8,5.4c-5.4,1-10.8,2.7-15.9,4.6c-11.5,4.1-22.9,9.3-35,11c-13.2,1.8-27.4-0.4-40.3,1.6
		C47.8,8.5,68.8,0,91.8,0C102.7,0,113.2,1.9,122.8,5.4z"/>
	<path class="st5" d="M177.5,125c-0.1,0.2-0.2,0.4-0.2,0.6c-0.3,0.8-0.6,1.6-1,2.3v0c-1.6,3.8-3.5,7.5-5.6,11
		c-16,26.8-45.4,44.7-78.9,44.7c-3.1,0-6.2-0.2-9.2-0.5c-11.7-1.2-22.8-4.6-32.8-9.7c-0.7-0.4-1.5-0.8-2.2-1.2
		c-4-2.2-7.9-4.7-11.5-7.5c-1.6-1.3-3.3-2.6-4.8-3.9c-3.5-3.1-6.7-6.4-9.7-9.9c-0.5-0.6-1-1.2-1.5-1.8c-3.3-4.2-6.3-8.6-8.9-13.3
		c-1-1.9-2-3.8-2.9-5.8c-2.5-5.3-4.4-11-5.8-16.8c-0.5-1.9-0.9-3.8-1.2-5.8c-0.5-2.9-0.9-5.8-1.1-8.8c-0.1-0.8-0.1-1.5-0.1-2.3
		C0,94.9,0,93.4,0,91.8c0-2.4,0.1-4.8,0.3-7.2c0.1-1.1,0.2-2.2,0.3-3.3v0C1,78,1.5,74.7,2.3,71.4c0.7-3,1.5-5.9,2.5-8.8
		c1.2-3.6,2.6-7.1,4.2-10.5v0c0.5-1,1-2,1.5-2.9c0.8-1.5,1.6-3,2.5-4.5c-0.5,1.3-1,2.6-1.4,4c-1,2.9-1.8,5.8-2.5,8.8
		c-0.7,3.2-1.3,6.5-1.7,9.9v0c-0.1,1.1-0.2,2.2-0.3,3.3c-0.2,2.4-0.3,4.8-0.3,7.2c0,1.5,0,3,0.1,4.5C7,83.2,7,84,7.1,84.7
		c0.2,3,0.6,5.9,1.1,8.8c0.3,1.9,0.7,3.9,1.2,5.8c1.4,5.8,3.4,11.5,5.8,16.8c0.9,2,1.9,3.9,2.9,5.8c2.6,4.7,5.5,9.2,8.9,13.3
		c0.5,0.6,1,1.2,1.5,1.8c3,3.6,6.2,6.9,9.7,9.9c1.6,1.4,3.2,2.7,4.8,3.9c3.6,2.8,7.5,5.3,11.5,7.5c0.7,0.4,1.5,0.8,2.2,1.2
		c10,5.2,21.1,8.6,32.8,9.7c3,0.3,6.1,0.5,9.2,0.5C132.1,169.8,161.5,151.8,177.5,125z"/>
	<ellipse transform="matrix(0.8991 0.4377 -0.4377 0.8991 26.4345 -52.286)" class="st6" cx="126.7" cy="31.2" rx="24.5" ry="9.2"/>
</g>
</svg>
