<!-- Generator: Adobe Illustrator 19.1.1, SVG Export Plug-In  -->
<svg version="1.1"
	 xmlns="http://www.w3.org/2000/svg" xmlns:xlink="http://www.w3.org/1999/xlink" xmlns:a="http://ns.adobe.com/AdobeSVGViewerExtensions/3.0/"
	 x="0px" y="0px" width="557.1px" height="536.5px" viewBox="0 0 557.1 536.5" style="enable-background:new 0 0 557.1 536.5;"
	 xml:space="preserve">
<style type="text/css">
	.st0{fill:url(#SVGID_1_);}
	.st1{fill:url(#SVGID_2_);}
	.st2{fill:url(#SVGID_3_);}
	.st3{fill:#2E2746;}
	.st4{fill:#1C1928;}
	.st5{fill:#78BEBD;}
	.st6{fill:#5D9291;}
	.st7{opacity:0.4;fill:#78BEBD;}
	.st8{fill:url(#SVGID_4_);}
	.st9{fill:url(#SVGID_5_);}
	.st10{fill:url(#SVGID_6_);}
</style>
<defs>
</defs>
<g>
	<linearGradient id="SVGID_1_" gradientUnits="userSpaceOnUse" x1="-177.0457" y1="701.7368" x2="439.7849" y2="336.8511">
		<stop  offset="0" style="stop-color:#3F49A1"/>
		<stop  offset="0.9893" style="stop-color:#2E254B"/>
	</linearGradient>
	<path class="st0" d="M550,288.1c-13.3-40-41.9-73.1-73.5-101c18.4,17.4,34.7,36.8,46.7,59.1c12.1,22.3,16.5,50.3,5.3,73
		C518.4,340,497.3,353,476,361.9c-103.6,43.3-225.7,12.6-331.4,50.5C82.9,434.6,30.9,479.3,0,536.5h219.5c13-30.9,37.5-57,68.1-70.9
		c38.7-17.5,82.8-15.7,125.2-17.7s88.1-10,117-41.1C558.5,376,563.3,328.1,550,288.1z"/>
	<linearGradient id="SVGID_2_" gradientUnits="userSpaceOnUse" x1="497.0624" y1="-135.9015" x2="436.0682" y2="80.7339">
		<stop  offset="0" style="stop-color:#3F49A1"/>
		<stop  offset="0.9893" style="stop-color:#2E254B"/>
	</linearGradient>
	<path class="st1" d="M444.3,0c-3.8,10.4-11.9,20.1-20.9,27c-15.5,11.9-34.4,20-46.6,35.2c-18.8,23.5-16.5,58.8-1.5,84.9
		c15,26.1,40.2,44.6,65.8,60.4c-17.8-11.6-32.4-26.5-44.8-43.9c-12.4-17.3-18.3-40.7-10-60.3c10.2-24.2,37.8-35.4,63-42.7
		c25.2-7.3,53-14.5,68.6-35.6c5.4-7.3,8.2-16,9-24.9H444.3z"/>
	<linearGradient id="SVGID_3_" gradientUnits="userSpaceOnUse" x1="333.8645" y1="365.3335" x2="76.7074" y2="697.2051">
		<stop  offset="0" style="stop-color:#3F49A1"/>
		<stop  offset="0.9893" style="stop-color:#2E254B"/>
	</linearGradient>
	<path class="st2" d="M372.3,419.8c-23,2.3-46.3,0.1-69.4,0.8c-56.4,1.5-112.2,19.8-158.6,51.9c-25.4,17.6-48,39.4-66.6,64h56.2
		c33.7-51.7,88.7-89.9,149.8-99.8c27.3-4.4,55.1-3.7,82.5-7.5c27.3-3.9,50.5-14.7,69.1-35.1C418.9,410.3,395.3,417.5,372.3,419.8z"
		/>
	<path class="st3" d="M515.5,233.6c-16-36.2-50.8-72.1-77.7-80.1c-5.1-1.5-9.5-1.9-13.3-1.3c-3.8-1.1-7.4-1.6-10.5-1.4
		c0.2-0.2,0.3-0.3,0.5-0.5c13.2-11.8,48.2,5.8,78.3,39.4c20.6,23,33.5,47.5,35.3,64.4c-1-17.5-14.5-44-36.7-68.7
		c-31-34.7-67.2-52.9-80.8-40.8c-2.6,2.3-4.1,5.5-4.8,9.5c0,0,0,0,0,0c-2,1.8-3.3,4.1-4,7c-0.1-0.3-0.1-0.7-0.2-1
		c-4.8-26.9,18.1-33.1,51.2-13.9c22.7,13.2,44.3,34.9,57.2,55.9c-13.1-22.5-36.3-46.2-60.7-60.4c-34.2-19.9-58-13.6-53,14.1
		c0.9,5.2,2.8,10.9,5.5,16.7c0.7,4,2.1,8.3,4,12.8c-0.3-0.4-0.6-0.8-0.9-1.3c-21-31.7-19-59.3,4.6-61.8c16.1-1.7,38.2,8.9,57.2,26
		c-20.2-18.9-44.2-30.8-61.6-29c-24.4,2.5-26.6,30.9-5,63.5c4.1,6.2,8.7,12,13.7,17.5c3,4.6,6.5,9.1,10.5,13.6
		c-0.4-0.3-0.8-0.6-1.1-0.9c-29.2-24.4-48.8-62.9-43.8-86.1c3.4-15.9,17.5-20.4,35.4-13.8c-19.6-8-35.2-3.6-38.9,13.5
		c-5.2,23.9,15,63.7,45,88.7c5.7,4.7,11.3,8.6,16.7,11.6c4.3,3.6,8.7,6.7,13,9.3c-0.3-0.1-0.7-0.2-1-0.3
		c-26.2-7.8-60-42.5-75.4-77.5c-10.6-24-9.9-41.9,0.1-48.4c-11.5,5.9-12.8,24.9-1.3,50.8c16,36.2,50.8,72.1,77.7,80.1
		c5.1,1.5,9.6,1.9,13.3,1.3c3.8,1.1,7.4,1.6,10.5,1.4c-0.2,0.2-0.3,0.3-0.5,0.5c-13.2,11.8-48.2-5.8-78.3-39.4
		c-20.6-23-33.5-47.5-35.3-64.4c1,17.5,14.5,44,36.7,68.7c31,34.7,67.2,52.9,80.8,40.8c2.6-2.3,4.1-5.5,4.8-9.5c0,0,0,0,0,0
		c2-1.8,3.3-4.1,4-7c0.1,0.3,0.1,0.7,0.2,1c4.8,26.9-18.1,33.1-51.2,13.9c-22.7-13.2-44.3-34.9-57.2-55.9
		c13.1,22.5,36.3,46.2,60.7,60.4c34.2,19.9,58,13.6,53-14.1c-0.9-5.2-2.8-10.9-5.5-16.7c-0.7-4-2.1-8.3-4-12.8
		c0.3,0.4,0.6,0.8,0.9,1.3c21,31.7,19,59.3-4.6,61.8c-16.1,1.7-38.2-8.9-57.2-26c20.2,18.9,44.2,30.8,61.6,29
		c24.4-2.5,26.6-30.9,5-63.5c-4.1-6.2-8.7-12-13.7-17.5c-3-4.6-6.5-9.1-10.5-13.6c0.4,0.3,0.8,0.6,1.1,0.9
		c29.2,24.4,48.8,62.9,43.8,86.1c-3.4,15.9-17.5,20.4-35.4,13.8c19.6,8,35.2,3.6,38.9-13.5c5.2-23.9-15-63.7-45-88.7
		c-5.7-4.7-11.3-8.6-16.7-11.6c-4.3-3.6-8.7-6.7-13-9.3c0.3,0.1,0.7,0.2,1,0.3c26.2,7.8,60,42.5,75.4,77.5
		c10.6,24,9.9,41.9-0.1,48.4C525.6,278.6,526.9,259.5,515.5,233.6z"/>
	
		<ellipse transform="matrix(0.7039 0.7103 -0.7103 0.7039 269.5962 -258.019)" class="st4" cx="444.2" cy="194.3" rx="41" ry="15.1"/>
	<g>
		<path class="st5" d="M467.9,221.5c-11,10.8-54.1-32.1-49.5-46.7c0.3-0.9,0.8-1.7,1.5-2.4c13.6-12.5,34.8-11.9,47.8,1.4
			c3.3,3.4,5.8,7.2,7.4,11.4C479.8,197.2,477.4,211.5,467.9,221.5z"/>
		<path class="st6" d="M448.7,167.7c-0.1,0-0.2-0.1-0.3-0.1c-1.7-0.6-3.5,1-3.5,2.7c0,1.7,1.8,3.3,3.5,2.7c0.1,0,0.2-0.1,0.3-0.1
			c1.1-0.4,2-1.3,2-2.6C450.7,169,449.8,168.1,448.7,167.7z"/>
		<path class="st6" d="M463.9,175.3c-2.2-1.3-5.2-0.5-6.5,1.7c-0.6,1.1-0.8,2.4-0.5,3.7c0.2,0.8,0.6,1.5,1.2,2.1
			c0.6,0.6,1.3,1,2.1,1.2c1.6,0.6,3.5-0.1,4.6-1.2C467,180.6,466.5,176.8,463.9,175.3z"/>
		<path class="st6" d="M461,199c-2.2,0-2.2,3.5,0,3.5C463.3,202.4,463.3,199,461,199z"/>
		<path class="st6" d="M450.2,193c-5.9,0-5.9,9.2,0,9.2C456.1,202.3,456.1,193,450.2,193z"/>
		<path class="st6" d="M433.6,181.5c-0.4-0.2-0.8-0.1-1.2,0c-1.4,0.3-1.4,2.6,0,2.8c0.4,0.1,0.8,0.2,1.2,0c0.6-0.2,1.1-0.7,1.1-1.4
			S434.2,181.7,433.6,181.5z"/>
		<path class="st6" d="M427.6,172.1c-2.1,0-3.9,1.8-3.9,3.9c0,2.1,1.8,3.9,3.9,3.9c2.1,0,3.9-1.8,3.9-3.9
			C431.5,173.8,429.7,172.1,427.6,172.1z"/>
		<path class="st6" d="M467.4,193.2c-0.1,0-0.2,0-0.3,0.1c-2.2,0.5-2.2,3.8,0,4.4c0.1,0,0.2,0,0.3,0.1c1.5,0.4,2.9-0.7,2.9-2.2
			C470.3,193.9,468.8,192.9,467.4,193.2z"/>
		<path class="st6" d="M463.2,212.6c-1.8,0-3.3,1.5-3.3,3.3s1.5,3.3,3.3,3.3s3.3-1.5,3.3-3.3S465,212.6,463.2,212.6z"/>
		<path class="st6" d="M441.5,202.6c-0.1,0-0.1,0-0.2,0c-1,0.1-1.7,0.8-1.8,1.8c0,0.1,0,0.1,0,0.2c-0.1,1.8,2.3,2.6,3.4,1.4
			C444.1,204.9,443.3,202.5,441.5,202.6z"/>
		<path class="st7" d="M467.9,221.5c-11,10.8-54.1-32.1-49.5-46.7c9.1,18.1,38.3,43.6,47.1,35c6.6-6.9,9.8-15.8,9.6-24.7
			C479.8,197.2,477.4,211.5,467.9,221.5z"/>
	</g>
</g>
</svg>
