<!-- Generator: Adobe Illustrator 19.1.1, SVG Export Plug-In  -->
<svg version="1.1"
	 xmlns="http://www.w3.org/2000/svg" xmlns:xlink="http://www.w3.org/1999/xlink" xmlns:a="http://ns.adobe.com/AdobeSVGViewerExtensions/3.0/"
	 x="0px" y="0px" width="427.1px" height="223px" viewBox="0 0 427.1 223" style="enable-background:new 0 0 427.1 223;"
	 xml:space="preserve">
<style type="text/css">
	.st0{fill:#432572;}
</style>
<defs>
</defs>
<path class="st0" d="M342.5,64.3c-5.2-0.9-11.3,1.3-16.7,0c-9.3-2.2-11.9-14.4-6.1-21.1c5.8-6.7,16.3-8.5,25.8-7.9
	c16.3,1.1,33.3,9.6,38.4,23.7c4.7,12.9-2.1,27.3-13.3,36.1c-11.2,8.8-26,12.9-40.7,15.6c-21.1,3.9-69.3,16.8-79.9-9.8
	c-1.9-4.7-1.9-9.9-3.3-14.7c-8.4-29.7-64-7.9-81.4,0.6c-35.7,17.5-70.6,39.4-114.5,34.5c-16.7-1.9-35.1-13.5-47.3,0.8
	c-9,10.6,0.6,26.5,13.2,32.7c19.6,9.6,41.4-13.6,58.6-3.3c10.5,6.3,5.9,19.7-2.2,24.6c-13.8,8.5-30.6,8.4-32.5,26.6
	c-3.6,34.1,67.3,17.4,84.5,7.5c14.7-8.5,28.5-17.1,36.1-31.8c7.6-14.7,13.9-26.3,31.4-33.5c21.2-8.6,45.3-5.5,67.7-1.8
	c30.4,5,62.4,9,92.7,2.8c45.3-9.2,73.3-43.5,74.1-84.9c0.3-17.6-6.8-36.1-22.2-47.2c-9.8-7.1-22.1-10.7-34.4-12.5
	c-18.8-2.7-38.6-1.3-55.3,6.3c-16.7,7.7-29.9,22.1-32.4,38.9c-2.5,16.8,7.2,35.4,24.4,42.9c13.6,5.9,32,3.5,40.2-7.6
	c3.7-5,4.3-13-1.5-16.3C344.8,64.9,343.6,64.5,342.5,64.3z"/>
</svg>
