<!-- Generator: Adobe Illustrator 19.1.1, SVG Export Plug-In  -->
<svg version="1.1"
	 xmlns="http://www.w3.org/2000/svg" xmlns:xlink="http://www.w3.org/1999/xlink" xmlns:a="http://ns.adobe.com/AdobeSVGViewerExtensions/3.0/"
	 x="0px" y="0px" width="750px" height="500px" viewBox="0 0 750 500" style="enable-background:new 0 0 750 500;"
	 xml:space="preserve">
<style type="text/css">
	.st0{fill:#00C2FF;}
	.st1{fill:#FCD000;}
	.st2{fill:#4FD4C6;}
	.st3{fill:#FFFFFF;}
	.st4{fill:#D0D2D3;}
	.st5{fill:#E64920;}
</style>
<defs>
</defs>
<path class="st0" d="M602.1,122.5l-1.2-0.3c-4-0.9-7.1-4-8-8l-0.3-1.2c-0.1-0.5-0.8-0.5-0.9,0l-0.3,1.2c-0.9,4-4,7.1-8,8l-1.2,0.3
	c-0.5,0.1-0.5,0.8,0,0.9l1.2,0.3c4,0.9,7.1,4,8,8l0.3,1.2c0.1,0.5,0.8,0.5,0.9,0l0.3-1.2c0.9-4,4-7.1,8-8l1.2-0.3
	C602.6,123.3,602.6,122.6,602.1,122.5z"/>
<path class="st1" d="M727.7,340.7l-1.2-0.3c-4-0.9-7.1-4-8-8l-0.3-1.2c-0.1-0.5-0.8-0.5-0.9,0l-0.3,1.2c-0.9,4-4,7.1-8,8l-1.2,0.3
	c-0.5,0.1-0.5,0.8,0,0.9l1.2,0.3c4,0.9,7.1,4,8,8l0.3,1.2c0.1,0.5,0.8,0.5,0.9,0l0.3-1.2c0.9-4,4-7.1,8-8l1.2-0.3
	C728.1,341.4,728.1,340.8,727.7,340.7z"/>
<path class="st0" d="M135.3,348.1l-1.2-0.3c-4-0.9-7.1-4-8-8l-0.3-1.2c-0.1-0.5-0.8-0.5-0.9,0l-0.3,1.2c-0.9,4-4,7.1-8,8l-1.2,0.3
	c-0.5,0.1-0.5,0.8,0,0.9l1.2,0.3c4,0.9,7.1,4,8,8l0.3,1.2c0.1,0.5,0.8,0.5,0.9,0l0.3-1.2c0.9-4,4-7.1,8-8l1.2-0.3
	C135.8,348.9,135.8,348.2,135.3,348.1z"/>
<path class="st1" d="M330.2,314l-1.2-0.3c-4-0.9-7.1-4-8-8l-0.3-1.2c-0.1-0.5-0.8-0.5-0.9,0l-0.3,1.2c-0.9,4-4,7.1-8,8l-1.2,0.3
	c-0.5,0.1-0.5,0.8,0,0.9l1.2,0.3c4,0.9,7.1,4,8,8l0.3,1.2c0.1,0.5,0.8,0.5,0.9,0l0.3-1.2c0.9-4,4-7.1,8-8l1.2-0.3
	C330.6,314.7,330.6,314.1,330.2,314z"/>
<path class="st0" d="M564.5,382.4l-1.2-0.3c-4-0.9-7.1-4-8-8l-0.3-1.2c-0.1-0.5-0.8-0.5-0.9,0l-0.3,1.2c-0.9,4-4,7.1-8,8l-1.2,0.3
	c-0.5,0.1-0.5,0.8,0,0.9l1.2,0.3c4,0.9,7.1,4,8,8l0.3,1.2c0.1,0.5,0.8,0.5,0.9,0l0.3-1.2c0.9-4,4-7.1,8-8l1.2-0.3
	C565,383.2,565,382.5,564.5,382.4z"/>
<path class="st2" d="M267.3,361.1l-0.6-0.1c-2-0.4-3.5-2-3.9-3.9l-0.1-0.6c0-0.2-0.4-0.2-0.4,0l-0.1,0.6c-0.4,2-2,3.5-3.9,3.9
	l-0.6,0.1c-0.2,0-0.2,0.4,0,0.4l0.6,0.1c2,0.4,3.5,2,3.9,3.9l0.1,0.6c0,0.2,0.4,0.2,0.4,0l0.1-0.6c0.4-2,2-3.5,3.9-3.9l0.6-0.1
	C267.6,361.5,267.6,361.2,267.3,361.1z"/>
<path class="st1" d="M718.8,458.3l-0.6-0.1c-2-0.4-3.5-2-3.9-3.9l-0.1-0.6c0-0.2-0.4-0.2-0.4,0l-0.1,0.6c-0.4,2-2,3.5-3.9,3.9
	l-0.6,0.1c-0.2,0-0.2,0.4,0,0.4l0.6,0.1c2,0.4,3.5,2,3.9,3.9l0.1,0.6c0,0.2,0.4,0.2,0.4,0l0.1-0.6c0.4-2,2-3.5,3.9-3.9l0.6-0.1
	C719.1,458.6,719.1,458.3,718.8,458.3z"/>
<path class="st1" d="M563.5,182.8c0.2-0.2,0.1-0.5-0.2-0.6l-3.1-0.5c-0.1,0-0.2-0.1-0.3-0.2l-1.4-2.8c-0.1-0.2-0.5-0.2-0.6,0
	l-1.4,2.8c0,0.1-0.1,0.2-0.3,0.2l-3.1,0.5c-0.3,0-0.4,0.4-0.2,0.6l2.2,2.2c0.1,0.1,0.1,0.2,0.1,0.3l-0.5,3.1c0,0.3,0.2,0.5,0.5,0.4
	l2.8-1.4c0.1,0,0.2,0,0.3,0l2.8,1.4c0.2,0.1,0.5-0.1,0.5-0.4l-0.5-3.1c0-0.1,0-0.2,0.1-0.3L563.5,182.8z"/>
<path class="st1" d="M55,234.6c0.2-0.2,0.1-0.5-0.2-0.6l-3.1-0.5c-0.1,0-0.2-0.1-0.3-0.2l-1.4-2.8c-0.1-0.2-0.5-0.2-0.6,0l-1.4,2.8
	c0,0.1-0.1,0.2-0.3,0.2l-3.1,0.5c-0.3,0-0.4,0.4-0.2,0.6l2.2,2.2c0.1,0.1,0.1,0.2,0.1,0.3l-0.5,3.1c0,0.3,0.2,0.5,0.5,0.4l2.8-1.4
	c0.1,0,0.2,0,0.3,0l2.8,1.4c0.2,0.1,0.5-0.1,0.5-0.4l-0.5-3.1c0-0.1,0-0.2,0.1-0.3L55,234.6z"/>
<path class="st0" d="M55,135.3c0.2-0.2,0.1-0.5-0.2-0.6l-3.1-0.5c-0.1,0-0.2-0.1-0.3-0.2l-1.4-2.8c-0.1-0.2-0.5-0.2-0.6,0l-1.4,2.8
	c0,0.1-0.1,0.2-0.3,0.2l-3.1,0.5c-0.3,0-0.4,0.4-0.2,0.6l2.2,2.2c0.1,0.1,0.1,0.2,0.1,0.3l-0.5,3.1c0,0.3,0.2,0.5,0.5,0.4l2.8-1.4
	c0.1,0,0.2,0,0.3,0l2.8,1.4c0.2,0.1,0.5-0.1,0.5-0.4l-0.5-3.1c0-0.1,0-0.2,0.1-0.3L55,135.3z"/>
<path class="st0" d="M711.8,130.2c0.2-0.2,0.1-0.5-0.2-0.6l-3.1-0.5c-0.1,0-0.2-0.1-0.3-0.2l-1.4-2.8c-0.1-0.2-0.5-0.2-0.6,0
	l-1.4,2.8c0,0.1-0.1,0.2-0.3,0.2l-3.1,0.5c-0.3,0-0.4,0.4-0.2,0.6l2.2,2.2c0.1,0.1,0.1,0.2,0.1,0.3l-0.5,3.1c0,0.3,0.2,0.5,0.5,0.4
	l2.8-1.4c0.1,0,0.2,0,0.3,0l2.8,1.4c0.2,0.1,0.5-0.1,0.5-0.4l-0.5-3.1c0-0.1,0-0.2,0.1-0.3L711.8,130.2z"/>
<path class="st1" d="M101.4,35.5c0.2-0.2,0.1-0.5-0.2-0.6l-3.1-0.5c-0.1,0-0.2-0.1-0.3-0.2l-1.4-2.8c-0.1-0.2-0.5-0.2-0.6,0
	l-1.4,2.8c0,0.1-0.1,0.2-0.3,0.2l-3.1,0.5c-0.3,0-0.4,0.4-0.2,0.6l2.2,2.2c0.1,0.1,0.1,0.2,0.1,0.3l-0.5,3.1c0,0.3,0.2,0.5,0.5,0.4
	l2.8-1.4c0.1,0,0.2,0,0.3,0l2.8,1.4c0.2,0.1,0.5-0.1,0.5-0.4L99,38c0-0.1,0-0.2,0.1-0.3L101.4,35.5z"/>
<path class="st1" d="M222.4,138.3c0.2-0.2,0.1-0.5-0.2-0.6l-3.1-0.5c-0.1,0-0.2-0.1-0.3-0.2l-1.4-2.8c-0.1-0.2-0.5-0.2-0.6,0
	l-1.4,2.8c0,0.1-0.1,0.2-0.3,0.2l-3.1,0.5c-0.3,0-0.4,0.4-0.2,0.6l2.2,2.2c0.1,0.1,0.1,0.2,0.1,0.3l-0.5,3.1c0,0.3,0.2,0.5,0.5,0.4
	l2.8-1.4c0.1,0,0.2,0,0.3,0l2.8,1.4c0.2,0.1,0.5-0.1,0.5-0.4l-0.5-3.1c0-0.1,0-0.2,0.1-0.3L222.4,138.3z"/>
<path class="st3" d="M677.5,407c0.2-0.2,0.1-0.5-0.2-0.6l-3.1-0.5c-0.1,0-0.2-0.1-0.3-0.2l-1.4-2.8c-0.1-0.2-0.5-0.2-0.6,0l-1.4,2.8
	c0,0.1-0.1,0.2-0.3,0.2l-3.1,0.5c-0.3,0-0.4,0.4-0.2,0.6l2.2,2.2c0.1,0.1,0.1,0.2,0.1,0.3l-0.5,3.1c0,0.3,0.2,0.5,0.5,0.4l2.8-1.4
	c0.1,0,0.2,0,0.3,0l2.8,1.4c0.2,0.1,0.5-0.1,0.5-0.4l-0.5-3.1c0-0.1,0-0.2,0.1-0.3L677.5,407z"/>
<circle class="st3" cx="670.1" cy="100.2" r="1.9"/>
<circle class="st3" cx="55.1" cy="355.4" r="1.9"/>
<circle class="st3" cx="552.8" cy="41.5" r="1.9"/>
<circle class="st3" cx="69.4" cy="81.1" r="1.9"/>
<circle class="st0" cx="203" cy="244.6" r="3"/>
<circle class="st1" cx="180.8" cy="316.5" r="1.9"/>
<circle class="st1" cx="157.7" cy="22.4" r="1.9"/>
<circle class="st1" cx="609.9" cy="345.2" r="1.9"/>
<circle class="st1" cx="715.9" cy="279.4" r="1.9"/>
<circle class="st3" cx="182.6" cy="77.2" r="1.9"/>
<circle class="st3" cx="444.5" cy="327.1" r="1.9"/>
<circle class="st3" cx="148.2" cy="257.6" r="1.9"/>
<circle class="st1" cx="641.6" cy="31.2" r="1.9"/>
<circle class="st3" cx="146.4" cy="115.7" r="1.9"/>
<circle class="st0" cx="672" cy="350.4" r="1.9"/>
<circle class="st0" cx="600.6" cy="53.6" r="1.9"/>
<circle class="st3" cx="673.9" cy="199.5" r="3.8"/>
<circle class="st3" cx="96.1" cy="399.9" r="1.9"/>
<path class="st4" d="M527.6,79.7l-20,25.4c-1.4,1.8-4,2.1-5.8,0.7c-1.8-1.4-2.1-4-0.7-5.8c0.2-0.3,0.5-0.5,0.7-0.7l25.4-20
	c0.1-0.1,0.3-0.1,0.4,0.1C527.7,79.4,527.7,79.6,527.6,79.7z"/>
<path class="st1" d="M600.3,252.5l-20,25.4c-1.4,1.8-4,2.1-5.8,0.7c-1.8-1.4-2.1-4-0.7-5.8c0.2-0.3,0.5-0.5,0.7-0.7l25.4-20
	c0.1-0.1,0.3-0.1,0.4,0.1C600.3,252.2,600.3,252.3,600.3,252.5z"/>
<path class="st4" d="M235.9,62.7l-10.7,13.6c-0.8,1-2.2,1.1-3.1,0.4c-1-0.8-1.1-2.2-0.4-3.1c0.1-0.1,0.2-0.3,0.4-0.4l13.6-10.7
	c0.1-0.1,0.2,0,0.2,0C236,62.6,236,62.7,235.9,62.7z"/>
<path class="st4" d="M103.4,272.3l-10.7,13.6c-0.8,1-2.2,1.1-3.1,0.4c-1-0.8-1.1-2.2-0.4-3.1c0.1-0.1,0.2-0.3,0.4-0.4l13.6-10.7
	c0.1-0.1,0.2,0,0.2,0C103.4,272.2,103.4,272.3,103.4,272.3z"/>
<path class="st1" d="M355.7,85.8L345,99.4c-0.8,1-2.2,1.1-3.1,0.4c-1-0.8-1.1-2.2-0.4-3.1c0.1-0.1,0.2-0.3,0.4-0.4l13.6-10.7
	c0.1-0.1,0.2,0,0.2,0C355.7,85.7,355.7,85.8,355.7,85.8z"/>
<path class="st4" d="M679.3,258.6l-10.7,13.6c-0.8,1-2.2,1.1-3.1,0.4c-1-0.8-1.1-2.2-0.4-3.1c0.1-0.1,0.2-0.3,0.4-0.4l13.6-10.7
	c0.1-0.1,0.2,0,0.2,0C679.4,258.5,679.4,258.5,679.3,258.6z"/>
<path class="st5" d="M257.9,312.8l-16,20.4c-1.1,1.4-3.2,1.7-4.7,0.6c-1.4-1.1-1.7-3.2-0.6-4.7c0.2-0.2,0.4-0.4,0.6-0.6l20.4-16
	c0.1-0.1,0.3-0.1,0.3,0C258,312.6,258,312.7,257.9,312.8z"/>
<path class="st5" d="M706.5,43l-16,20.4c-1.1,1.4-3.2,1.7-4.7,0.6c-1.4-1.1-1.7-3.2-0.6-4.7c0.2-0.2,0.4-0.4,0.6-0.6l20.4-16
	c0.1-0.1,0.3-0.1,0.3,0C706.5,42.8,706.5,42.9,706.5,43z"/>
<path class="st5" d="M91.4,442.9l-16,20.4c-1.1,1.4-3.2,1.7-4.7,0.6c-1.4-1.1-1.7-3.2-0.6-4.7c0.2-0.2,0.4-0.4,0.6-0.6l20.4-16
	c0.1-0.1,0.3-0.1,0.3,0C91.5,442.7,91.5,442.8,91.4,442.9z"/>
<g>
	<defs>
		<rect id="SVGID_1_" width="750" height="500"/>
	</defs>
	<clipPath id="SVGID_2_">
		<use xlink:href="#SVGID_1_"  style="overflow:visible;"/>
	</clipPath>
</g>
</svg>
