<!-- Generator: Adobe Illustrator 19.1.1, SVG Export Plug-In  -->
<svg version="1.1"
	 xmlns="http://www.w3.org/2000/svg" xmlns:xlink="http://www.w3.org/1999/xlink" xmlns:a="http://ns.adobe.com/AdobeSVGViewerExtensions/3.0/"
	 x="0px" y="0px" width="1041.1px" height="160.5px" viewBox="0 0 1041.1 160.5" style="enable-background:new 0 0 1041.1 160.5;"
	 xml:space="preserve">
<style type="text/css">
	.st0{fill:#432572;}
</style>
<defs>
</defs>
<path class="st0" d="M0,75.5C47.5,76.2,90,53,129.2,33.2c38.1-19.3,91.1-35.3,136.5-32.9c42.2,2.2,73,22.1,111.9,33.7
	c39.9,12,81.2,17,123.1,21.7c88.3,9.8,159.5-19,240.8-38.8c53.5-13,88.9-1.8,137.8,13.4c52.8,16.4,108.9,33.8,161.8,47
	c-22.3,5.2-42.8,15.8-65.2,21.2c-34.1,8.2-67.1,19.3-100.6,28.3c-84.1,22.8-175.2,32.8-262.3,14.9c-106.1-21.8-208.5-22.5-316.2-3
	c-77.8,14.1-148.2,36.3-224.5,8.7C42.8,136.6,7.2,116.4,0,75.5z"/>
</svg>
