<!-- Generator: Adobe Illustrator 19.1.1, SVG Export Plug-In  -->
<svg version="1.1"
	 xmlns="http://www.w3.org/2000/svg" xmlns:xlink="http://www.w3.org/1999/xlink" xmlns:a="http://ns.adobe.com/AdobeSVGViewerExtensions/3.0/"
	 x="0px" y="0px" width="750px" height="532.1px" viewBox="0 0 750 532.1" style="enable-background:new 0 0 750 532.1;"
	 xml:space="preserve">
<style type="text/css">
	.st0{fill:#00C2FF;}
	.st1{fill:#FCD000;}
	.st2{fill:#4FD4C6;}
	.st3{fill:#FFFFFF;}
</style>
<defs>
</defs>
<path class="st0" d="M602.1,132.5l-1.2-0.3c-4-0.9-7.1-4-8-8l-0.3-1.2c-0.1-0.5-0.8-0.5-0.9,0l-0.3,1.2c-0.9,4-4,7.1-8,8l-1.2,0.3
	c-0.5,0.1-0.5,0.8,0,0.9l1.2,0.3c4,0.9,7.1,4,8,8l0.3,1.2c0.1,0.5,0.8,0.5,0.9,0l0.3-1.2c0.9-4,4-7.1,8-8l1.2-0.3
	C602.6,133.3,602.6,132.6,602.1,132.5z"/>
<path class="st1" d="M727.7,350.7l-1.2-0.3c-4-0.9-7.1-4-8-8l-0.3-1.2c-0.1-0.5-0.8-0.5-0.9,0l-0.3,1.2c-0.9,4-4,7.1-8,8l-1.2,0.3
	c-0.5,0.1-0.5,0.8,0,0.9l1.2,0.3c4,0.9,7.1,4,8,8l0.3,1.2c0.1,0.5,0.8,0.5,0.9,0l0.3-1.2c0.9-4,4-7.1,8-8l1.2-0.3
	C728.1,351.4,728.1,350.8,727.7,350.7z"/>
<path class="st0" d="M135.3,358.1l-1.2-0.3c-4-0.9-7.1-4-8-8l-0.3-1.2c-0.1-0.5-0.8-0.5-0.9,0l-0.3,1.2c-0.9,4-4,7.1-8,8l-1.2,0.3
	c-0.5,0.1-0.5,0.8,0,0.9l1.2,0.3c4,0.9,7.1,4,8,8l0.3,1.2c0.1,0.5,0.8,0.5,0.9,0l0.3-1.2c0.9-4,4-7.1,8-8l1.2-0.3
	C135.8,358.9,135.8,358.2,135.3,358.1z"/>
<path class="st1" d="M330.2,324l-1.2-0.3c-4-0.9-7.1-4-8-8l-0.3-1.2c-0.1-0.5-0.8-0.5-0.9,0l-0.3,1.2c-0.9,4-4,7.1-8,8l-1.2,0.3
	c-0.5,0.1-0.5,0.8,0,0.9l1.2,0.3c4,0.9,7.1,4,8,8l0.3,1.2c0.1,0.5,0.8,0.5,0.9,0l0.3-1.2c0.9-4,4-7.1,8-8l1.2-0.3
	C330.6,324.7,330.6,324.1,330.2,324z"/>
<path class="st0" d="M564.5,392.4l-1.2-0.3c-4-0.9-7.1-4-8-8l-0.3-1.2c-0.1-0.5-0.8-0.5-0.9,0l-0.3,1.2c-0.9,4-4,7.1-8,8l-1.2,0.3
	c-0.5,0.1-0.5,0.8,0,0.9l1.2,0.3c4,0.9,7.1,4,8,8l0.3,1.2c0.1,0.5,0.8,0.5,0.9,0l0.3-1.2c0.9-4,4-7.1,8-8l1.2-0.3
	C565,393.2,565,392.5,564.5,392.4z"/>
<path class="st2" d="M267.3,371.1l-0.6-0.1c-2-0.4-3.5-2-3.9-3.9l-0.1-0.6c0-0.2-0.4-0.2-0.4,0l-0.1,0.6c-0.4,2-2,3.5-3.9,3.9
	l-0.6,0.1c-0.2,0-0.2,0.4,0,0.4l0.6,0.1c2,0.4,3.5,2,3.9,3.9l0.1,0.6c0,0.2,0.4,0.2,0.4,0l0.1-0.6c0.4-2,2-3.5,3.9-3.9l0.6-0.1
	C267.6,371.5,267.6,371.2,267.3,371.1z"/>
<path class="st1" d="M718.8,468.3l-0.6-0.1c-2-0.4-3.5-2-3.9-3.9l-0.1-0.6c0-0.2-0.4-0.2-0.4,0l-0.1,0.6c-0.4,2-2,3.5-3.9,3.9
	l-0.6,0.1c-0.2,0-0.2,0.4,0,0.4l0.6,0.1c2,0.4,3.5,2,3.9,3.9l0.1,0.6c0,0.2,0.4,0.2,0.4,0l0.1-0.6c0.4-2,2-3.5,3.9-3.9l0.6-0.1
	C719.1,468.6,719.1,468.3,718.8,468.3z"/>
<path class="st1" d="M563.5,192.8c0.2-0.2,0.1-0.5-0.2-0.6l-3.1-0.5c-0.1,0-0.2-0.1-0.3-0.2l-1.4-2.8c-0.1-0.2-0.5-0.2-0.6,0
	l-1.4,2.8c0,0.1-0.1,0.2-0.3,0.2l-3.1,0.5c-0.3,0-0.4,0.4-0.2,0.6l2.2,2.2c0.1,0.1,0.1,0.2,0.1,0.3l-0.5,3.1c0,0.3,0.2,0.5,0.5,0.4
	l2.8-1.4c0.1,0,0.2,0,0.3,0l2.8,1.4c0.2,0.1,0.5-0.1,0.5-0.4l-0.5-3.1c0-0.1,0-0.2,0.1-0.3L563.5,192.8z"/>
<path class="st1" d="M55,244.6c0.2-0.2,0.1-0.5-0.2-0.6l-3.1-0.5c-0.1,0-0.2-0.1-0.3-0.2l-1.4-2.8c-0.1-0.2-0.5-0.2-0.6,0l-1.4,2.8
	c0,0.1-0.1,0.2-0.3,0.2l-3.1,0.5c-0.3,0-0.4,0.4-0.2,0.6l2.2,2.2c0.1,0.1,0.1,0.2,0.1,0.3l-0.5,3.1c0,0.3,0.2,0.5,0.5,0.4l2.8-1.4
	c0.1,0,0.2,0,0.3,0l2.8,1.4c0.2,0.1,0.5-0.1,0.5-0.4l-0.5-3.1c0-0.1,0-0.2,0.1-0.3L55,244.6z"/>
<path class="st0" d="M55,145.3c0.2-0.2,0.1-0.5-0.2-0.6l-3.1-0.5c-0.1,0-0.2-0.1-0.3-0.2l-1.4-2.8c-0.1-0.2-0.5-0.2-0.6,0l-1.4,2.8
	c0,0.1-0.1,0.2-0.3,0.2l-3.1,0.5c-0.3,0-0.4,0.4-0.2,0.6l2.2,2.2c0.1,0.1,0.1,0.2,0.1,0.3l-0.5,3.1c0,0.3,0.2,0.5,0.5,0.4l2.8-1.4
	c0.1,0,0.2,0,0.3,0l2.8,1.4c0.2,0.1,0.5-0.1,0.5-0.4l-0.5-3.1c0-0.1,0-0.2,0.1-0.3L55,145.3z"/>
<path class="st0" d="M711.8,140.2c0.2-0.2,0.1-0.5-0.2-0.6l-3.1-0.5c-0.1,0-0.2-0.1-0.3-0.2l-1.4-2.8c-0.1-0.2-0.5-0.2-0.6,0
	l-1.4,2.8c0,0.1-0.1,0.2-0.3,0.2l-3.1,0.5c-0.3,0-0.4,0.4-0.2,0.6l2.2,2.2c0.1,0.1,0.1,0.2,0.1,0.3l-0.5,3.1c0,0.3,0.2,0.5,0.5,0.4
	l2.8-1.4c0.1,0,0.2,0,0.3,0l2.8,1.4c0.2,0.1,0.5-0.1,0.5-0.4l-0.5-3.1c0-0.1,0-0.2,0.1-0.3L711.8,140.2z"/>
<path class="st1" d="M101.4,45.5c0.2-0.2,0.1-0.5-0.2-0.6l-3.1-0.5c-0.1,0-0.2-0.1-0.3-0.2l-1.4-2.8c-0.1-0.2-0.5-0.2-0.6,0
	l-1.4,2.8c0,0.1-0.1,0.2-0.3,0.2l-3.1,0.5c-0.3,0-0.4,0.4-0.2,0.6l2.2,2.2c0.1,0.1,0.1,0.2,0.1,0.3l-0.5,3.1c0,0.3,0.2,0.5,0.5,0.4
	l2.8-1.4c0.1,0,0.2,0,0.3,0l2.8,1.4c0.2,0.1,0.5-0.1,0.5-0.4L99,48c0-0.1,0-0.2,0.1-0.3L101.4,45.5z"/>
<path class="st1" d="M222.4,148.3c0.2-0.2,0.1-0.5-0.2-0.6l-3.1-0.5c-0.1,0-0.2-0.1-0.3-0.2l-1.4-2.8c-0.1-0.2-0.5-0.2-0.6,0
	l-1.4,2.8c0,0.1-0.1,0.2-0.3,0.2l-3.1,0.5c-0.3,0-0.4,0.4-0.2,0.6l2.2,2.2c0.1,0.1,0.1,0.2,0.1,0.3l-0.5,3.1c0,0.3,0.2,0.5,0.5,0.4
	l2.8-1.4c0.1,0,0.2,0,0.3,0l2.8,1.4c0.2,0.1,0.5-0.1,0.5-0.4l-0.5-3.1c0-0.1,0-0.2,0.1-0.3L222.4,148.3z"/>
<path class="st3" d="M677.5,417c0.2-0.2,0.1-0.5-0.2-0.6l-3.1-0.5c-0.1,0-0.2-0.1-0.3-0.2l-1.4-2.8c-0.1-0.2-0.5-0.2-0.6,0l-1.4,2.8
	c0,0.1-0.1,0.2-0.3,0.2l-3.1,0.5c-0.3,0-0.4,0.4-0.2,0.6l2.2,2.2c0.1,0.1,0.1,0.2,0.1,0.3l-0.5,3.1c0,0.3,0.2,0.5,0.5,0.4l2.8-1.4
	c0.1,0,0.2,0,0.3,0l2.8,1.4c0.2,0.1,0.5-0.1,0.5-0.4l-0.5-3.1c0-0.1,0-0.2,0.1-0.3L677.5,417z"/>
<circle class="st3" cx="670.1" cy="110.2" r="1.9"/>
<circle class="st3" cx="55.1" cy="365.4" r="1.9"/>
<circle class="st3" cx="552.8" cy="51.5" r="1.9"/>
<circle class="st3" cx="69.4" cy="91.1" r="1.9"/>
<circle class="st0" cx="203" cy="254.6" r="3"/>
<circle class="st1" cx="180.8" cy="326.5" r="1.9"/>
<circle class="st1" cx="157.7" cy="32.4" r="1.9"/>
<circle class="st1" cx="609.9" cy="355.2" r="1.9"/>
<circle class="st1" cx="715.9" cy="289.4" r="1.9"/>
<circle class="st3" cx="182.6" cy="87.2" r="1.9"/>
<circle class="st3" cx="444.5" cy="337.1" r="1.9"/>
<circle class="st3" cx="148.2" cy="267.6" r="1.9"/>
<circle class="st1" cx="641.6" cy="41.2" r="1.9"/>
<circle class="st3" cx="146.4" cy="125.7" r="1.9"/>
<circle class="st0" cx="672" cy="360.4" r="1.9"/>
<circle class="st0" cx="600.6" cy="63.6" r="1.9"/>
<circle class="st3" cx="673.9" cy="209.5" r="3.8"/>
<circle class="st3" cx="96.1" cy="409.9" r="1.9"/>
<g>
	<defs>
		<rect id="SVGID_1_" y="10" width="750" height="500"/>
	</defs>
	<clipPath id="SVGID_2_">
		<use xlink:href="#SVGID_1_"  style="overflow:visible;"/>
	</clipPath>
</g>
<path class="st0" d="M376.3,268.1l-1.2-0.3c-4-0.9-7.1-4-8-8l-0.3-1.2c-0.1-0.5-0.8-0.5-0.9,0l-0.3,1.2c-0.9,4-4,7.1-8,8l-1.2,0.3
	c-0.5,0.1-0.5,0.8,0,0.9l1.2,0.3c4,0.9,7.1,4,8,8l0.3,1.2c0.1,0.5,0.8,0.5,0.9,0l0.3-1.2c0.9-4,4-7.1,8-8l1.2-0.3
	C376.8,268.9,376.8,268.2,376.3,268.1z"/>
<path class="st1" d="M571.2,234l-1.2-0.3c-4-0.9-7.1-4-8-8l-0.3-1.2c-0.1-0.5-0.8-0.5-0.9,0l-0.3,1.2c-0.9,4-4,7.1-8,8l-1.2,0.3
	c-0.5,0.1-0.5,0.8,0,0.9l1.2,0.3c4,0.9,7.1,4,8,8l0.3,1.2c0.1,0.5,0.8,0.5,0.9,0l0.3-1.2c0.9-4,4-7.1,8-8l1.2-0.3
	C571.6,234.7,571.6,234.1,571.2,234z"/>
<path class="st2" d="M508.3,281.1l-0.6-0.1c-2-0.4-3.5-2-3.9-3.9l-0.1-0.6c0-0.2-0.4-0.2-0.4,0l-0.1,0.6c-0.4,2-2,3.5-3.9,3.9
	l-0.6,0.1c-0.2,0-0.2,0.4,0,0.4l0.6,0.1c2,0.4,3.5,2,3.9,3.9l0.1,0.6c0,0.2,0.4,0.2,0.4,0l0.1-0.6c0.4-2,2-3.5,3.9-3.9l0.6-0.1
	C508.6,281.5,508.6,281.2,508.3,281.1z"/>
<circle class="st0" cx="444" cy="164.6" r="3"/>
<circle class="st1" cx="421.8" cy="236.5" r="1.9"/>
<circle class="st3" cx="389.2" cy="177.6" r="1.9"/>
<circle class="st3" cx="337.1" cy="319.9" r="1.9"/>
<path class="st0" d="M316.3,106.4l-1.2-0.3c-4-0.9-7.1-4-8-8l-0.3-1.2c-0.1-0.5-0.8-0.5-0.9,0l-0.3,1.2c-0.9,4-4,7.1-8,8l-1.2,0.3
	c-0.5,0.1-0.5,0.8,0,0.9l1.2,0.3c4,0.9,7.1,4,8,8l0.3,1.2c0.1,0.5,0.8,0.5,0.9,0l0.3-1.2c0.9-4,4-7.1,8-8l1.2-0.3
	C316.8,107.2,316.8,106.5,316.3,106.4z"/>
<path class="st1" d="M511.2,72.3L510,72c-4-0.9-7.1-4-8-8l-0.3-1.2c-0.1-0.5-0.8-0.5-0.9,0l-0.3,1.2c-0.9,4-4,7.1-8,8l-1.2,0.3
	c-0.5,0.1-0.5,0.8,0,0.9l1.2,0.3c4,0.9,7.1,4,8,8l0.3,1.2c0.1,0.5,0.8,0.5,0.9,0l0.3-1.2c0.9-4,4-7.1,8-8l1.2-0.3
	C511.6,73,511.6,72.4,511.2,72.3z"/>
<path class="st2" d="M448.3,119.4l-0.6-0.1c-2-0.4-3.5-2-3.9-3.9l-0.1-0.6c0-0.2-0.4-0.2-0.4,0l-0.1,0.6c-0.4,2-2,3.5-3.9,3.9
	l-0.6,0.1c-0.2,0-0.2,0.4,0,0.4l0.6,0.1c2,0.4,3.5,2,3.9,3.9l0.1,0.6c0,0.2,0.4,0.2,0.4,0l0.1-0.6c0.4-2,2-3.5,3.9-3.9l0.6-0.1
	C448.6,119.8,448.6,119.5,448.3,119.4z"/>
<circle class="st0" cx="384" cy="3" r="3"/>
<circle class="st1" cx="361.8" cy="74.8" r="1.9"/>
<circle class="st3" cx="329.2" cy="15.9" r="1.9"/>
<circle class="st3" cx="277.1" cy="158.2" r="1.9"/>
<path class="st0" d="M166.3,478.4l-1.2-0.3c-4-0.9-7.1-4-8-8l-0.3-1.2c-0.1-0.5-0.8-0.5-0.9,0l-0.3,1.2c-0.9,4-4,7.1-8,8l-1.2,0.3
	c-0.5,0.1-0.5,0.8,0,0.9l1.2,0.3c4,0.9,7.1,4,8,8l0.3,1.2c0.1,0.5,0.8,0.5,0.9,0l0.3-1.2c0.9-4,4-7.1,8-8l1.2-0.3
	C166.8,479.2,166.8,478.5,166.3,478.4z"/>
<path class="st1" d="M361.2,444.3L360,444c-4-0.9-7.1-4-8-8l-0.3-1.2c-0.1-0.5-0.8-0.5-0.9,0l-0.3,1.2c-0.9,4-4,7.1-8,8l-1.2,0.3
	c-0.5,0.1-0.5,0.8,0,0.9l1.2,0.3c4,0.9,7.1,4,8,8l0.3,1.2c0.1,0.5,0.8,0.5,0.9,0l0.3-1.2c0.9-4,4-7.1,8-8l1.2-0.3
	C361.6,445,361.6,444.4,361.2,444.3z"/>
<path class="st2" d="M298.3,491.4l-0.6-0.1c-2-0.4-3.5-2-3.9-3.9l-0.1-0.6c0-0.2-0.4-0.2-0.4,0l-0.1,0.6c-0.4,2-2,3.5-3.9,3.9
	l-0.6,0.1c-0.2,0-0.2,0.4,0,0.4l0.6,0.1c2,0.4,3.5,2,3.9,3.9l0.1,0.6c0,0.2,0.4,0.2,0.4,0l0.1-0.6c0.4-2,2-3.5,3.9-3.9l0.6-0.1
	C298.6,491.8,298.6,491.5,298.3,491.4z"/>
<circle class="st0" cx="234" cy="375" r="3"/>
<circle class="st1" cx="211.8" cy="446.8" r="1.9"/>
<circle class="st3" cx="179.2" cy="387.9" r="1.9"/>
<circle class="st3" cx="127.1" cy="530.2" r="1.9"/>
<path class="st0" d="M456.3,438.4l-1.2-0.3c-4-0.9-7.1-4-8-8l-0.3-1.2c-0.1-0.5-0.8-0.5-0.9,0l-0.3,1.2c-0.9,4-4,7.1-8,8l-1.2,0.3
	c-0.5,0.1-0.5,0.8,0,0.9l1.2,0.3c4,0.9,7.1,4,8,8l0.3,1.2c0.1,0.5,0.8,0.5,0.9,0l0.3-1.2c0.9-4,4-7.1,8-8l1.2-0.3
	C456.8,439.2,456.8,438.5,456.3,438.4z"/>
<path class="st1" d="M651.2,404.3L650,404c-4-0.9-7.1-4-8-8l-0.3-1.2c-0.1-0.5-0.8-0.5-0.9,0l-0.3,1.2c-0.9,4-4,7.1-8,8l-1.2,0.3
	c-0.5,0.1-0.5,0.8,0,0.9l1.2,0.3c4,0.9,7.1,4,8,8l0.3,1.2c0.1,0.5,0.8,0.5,0.9,0l0.3-1.2c0.9-4,4-7.1,8-8l1.2-0.3
	C651.6,405,651.6,404.4,651.2,404.3z"/>
<path class="st2" d="M588.3,451.4l-0.6-0.1c-2-0.4-3.5-2-3.9-3.9l-0.1-0.6c0-0.2-0.4-0.2-0.4,0l-0.1,0.6c-0.4,2-2,3.5-3.9,3.9
	l-0.6,0.1c-0.2,0-0.2,0.4,0,0.4l0.6,0.1c2,0.4,3.5,2,3.9,3.9l0.1,0.6c0,0.2,0.4,0.2,0.4,0l0.1-0.6c0.4-2,2-3.5,3.9-3.9l0.6-0.1
	C588.6,451.8,588.6,451.5,588.3,451.4z"/>
<circle class="st0" cx="524" cy="335" r="3"/>
<circle class="st1" cx="501.8" cy="406.8" r="1.9"/>
<circle class="st3" cx="469.2" cy="347.9" r="1.9"/>
<circle class="st3" cx="417.1" cy="490.2" r="1.9"/>
</svg>
