<!-- Generator: Adobe Illustrator 19.1.1, SVG Export Plug-In  -->
<svg version="1.1"
	 xmlns="http://www.w3.org/2000/svg" xmlns:xlink="http://www.w3.org/1999/xlink" xmlns:a="http://ns.adobe.com/AdobeSVGViewerExtensions/3.0/"
	 x="0px" y="0px" width="386.7px" height="307.4px" viewBox="0 0 386.7 307.4" style="enable-background:new 0 0 386.7 307.4;"
	 xml:space="preserve">
<style type="text/css">
	.st0{fill:#432572;}
</style>
<defs>
</defs>
<path class="st0" d="M383,190.3c-1-10.5-24.5-36.6-31.1-45.8c-12.7-17.7-28.2-34.2-48.2-45.7c-25.4-14.6-56.2-20.4-86.4-20.9
	c-47.6-0.7-147.5,30.8-179.5-17c-6.2-9.3-2.4-25.7,10.8-28.6c0,0,0.1,0,0.1,0c12.5-2.5,22.3,16.3,34.7,9.4
	C99.8,32.6,68.6,6.1,58.4,2.3C25.3-9.9,5.7,29,1.2,51.6c-7.2,35.8,19.2,65.7,54.3,81.2c24.8,10.9,53.3,14.2,80.7,11.5
	c30.8-3,64.2-12.7,91.3,0.7c8.3,4.2,15.9,11.6,14.9,20.1c-1.2,10.2-13.6,16.1-24.9,18.2c-41.6,7.8-82.4-14.2-122.5-20.5
	c-39.8-6.2-67.8,25.4-46.3,57.8c37.6,56.8,118.3,19.4,173.8,39.6c42.3,15.4,112,82.6,153.8,22.6c13.2-18.9,10.1-40.3,10.1-61.8
	C386.4,214.4,384.5,206.8,383,190.3z"/>
</svg>
