<!-- Generator: Adobe Illustrator 19.1.1, SVG Export Plug-In  -->
<svg version="1.1"
	 xmlns="http://www.w3.org/2000/svg" xmlns:xlink="http://www.w3.org/1999/xlink" xmlns:a="http://ns.adobe.com/AdobeSVGViewerExtensions/3.0/"
	 x="0px" y="0px" width="53.3px" height="103px" viewBox="0 0 53.3 103" style="enable-background:new 0 0 53.3 103;"
	 xml:space="preserve">
<style type="text/css">
	.st0{fill:#4FD4C6;}
	.st1{fill:#FAE947;}
	.st2{fill:#BF3419;}
	.st3{fill:#E64920;}
	.st4{fill:#165B51;}
	.st5{fill:#FF893F;}
</style>
<defs>
</defs>
<g>
	<path class="st0" d="M40.6,53.7c0,0,15.1,1.3,12.3,17.8c-0.7,3.5-2.2,7.1-3.3,9.6c-0.3,0.8-1.5,0.6-1.6-0.3
		C47.9,76,46,68.5,36.7,68.3c0,0-5.1-2.2-3.7-9.4C34.4,51.7,40.6,53.7,40.6,53.7z"/>
	<path class="st0" d="M32.8,60.7c-0.3,5.7,3.9,7.5,3.9,7.5C46,68.5,47.9,76,48.1,80.8C48.1,80.8,55.1,62,32.8,60.7z"/>
	<path class="st0" d="M12.7,53.7c0,0-15.1,1.3-12.3,17.8c0.7,3.5,2.2,7.1,3.3,9.6c0.3,0.8,1.5,0.6,1.6-0.3
		C5.4,76,7.3,68.5,16.6,68.3c0,0,5.1-2.2,3.7-9.4S12.7,53.7,12.7,53.7z"/>
	<path class="st0" d="M20.5,60.7c0.3,5.7-3.9,7.5-3.9,7.5C7.3,68.5,5.4,76,5.2,80.8C5.2,80.8-1.8,62,20.5,60.7z"/>
	<path class="st1" d="M34.4,73.8c0-1.3-3.5-2.3-7.8-2.3s-7.8,1-7.8,2.3c0,0.2,0.1,0.3,0.2,0.5l1.3,3.5c0,1.1,2.8,1.9,6.3,1.9
		s6.3-0.9,6.3-1.9l1.3-3.5C34.4,74.2,34.4,74,34.4,73.8z"/>
	<ellipse class="st2" cx="26.6" cy="72.4" rx="11.1" ry="3.3"/>
	<path class="st3" d="M42,39.4c0-17-9.1-27-15.4-27s-15.4,10-15.4,27c0,17,6.3,31.5,6.3,31.5l0,0l0,0c0,1.3,4,2.4,9,2.4s9-1.1,9-2.4
		v0C35.7,70.9,42,56.4,42,39.4z"/>
	<path class="st1" d="M14.7,22.9c3.4,1.4,7.5,2.2,11.9,2.2c4.4,0,8.5-0.8,11.9-2.2c-3.2-6.8-8.1-10.5-11.9-10.5S17.9,16.1,14.7,22.9
		z"/>
	<circle class="st0" cx="26.6" cy="39.1" r="6.9"/>
	<path class="st4" d="M26.6,43.9c-2.7,0-4.9-2.2-4.9-4.9c0-2.7,2.2-4.9,4.9-4.9c2.7,0,4.9,2.2,4.9,4.9
		C31.5,41.7,29.3,43.9,26.6,43.9z"/>
	<circle class="st0" cx="26.6" cy="59.3" r="4.9"/>
	<path class="st4" d="M26.6,62.4c-1.7,0-3.1-1.4-3.1-3.1c0-1.7,1.4-3.1,3.1-3.1c1.7,0,3.1,1.4,3.1,3.1C29.8,61,28.4,62.4,26.6,62.4z
		"/>
	<g>
		<ellipse class="st3" cx="26.6" cy="12.7" rx="3" ry="1.8"/>
		<path class="st0" d="M27.2,0.5c-0.1-0.7-1-0.7-1.1,0l-1.1,11.7c0,0.4,0.7,0.7,1.6,0.7c0.9,0,1.6-0.3,1.6-0.7L27.2,0.5z"/>
	</g>
	<path class="st5" d="M30.8,82.7c-2.6-1.3-5.7-1.3-8.4,0c-2.1,1-4.2,2.9-4.2,6.6c0,5.7,5.1,11.2,7.4,13.3c0.6,0.5,1.4,0.5,2,0
		c2.2-2.1,7.4-7.6,7.4-13.3C35,85.6,32.9,83.7,30.8,82.7z"/>
	<path class="st1" d="M28.7,82.7c-1.3-0.7-2.9-0.7-4.2,0c-1,0.6-2.1,1.7-2.1,3.7c0,3.2,2.6,6.3,3.7,7.5c0.3,0.3,0.7,0.3,1,0
		c1.1-1.2,3.7-4.3,3.7-7.5C30.8,84.4,29.8,83.3,28.7,82.7z"/>
</g>
</svg>
